<?xml version="1.0" encoding="utf-8"?>
<!-- Generator: Adobe Illustrator 16.0.0, SVG Export Plug-In . SVG Version: 6.00 Build 0)  -->
<!DOCTYPE svg PUBLIC "-//W3C//DTD SVG 1.1//EN" "http://www.w3.org/Graphics/SVG/1.1/DTD/svg11.dtd">
<svg version="1.1" id="Layer_1" xmlns="http://www.w3.org/2000/svg" xmlns:xlink="http://www.w3.org/1999/xlink" x="0px" y="0px"
	 width="841.89px" height="841.89px" viewBox="0 0 841.89 841.89" enable-background="new 0 0 841.89 841.89" xml:space="preserve">
<path fill-rule="evenodd" clip-rule="evenodd" fill="#EE5554" d="M615.601,195.179c-0.859,8.792,1.415,10.129,7.246,15.674
	C678.67,264,713.468,339.028,713.468,422.168c0,161.088-130.636,291.723-291.723,291.723
	c-161.087,0-291.723-130.635-291.723-291.723c0-161.087,130.636-291.726,291.723-291.726c22.229,0,43.882,2.489,64.692,7.202
	c8.469,1.918,12.15,2.769,19.376-1.978c-5.466-1.601-10.982-3.062-16.572-4.36l-0.177-0.041c-2.336-0.541-4.685-1.049-7.038-1.533
	l-0.255-0.051c-2.345-0.481-4.706-0.929-7.077-1.357l-0.22-0.039c-2.371-0.427-4.758-0.819-7.148-1.186l-0.246-0.038
	c-2.407-0.369-4.833-0.705-7.264-1.017l-0.099-0.014c-2.449-0.309-4.905-0.59-7.372-0.839l-0.154-0.017
	c-2.476-0.254-4.967-0.469-7.46-0.664l-0.036-0.001c-7.573-0.579-15.228-0.87-22.95-0.87c-2.576,0-5.142,0.03-7.702,0.098
	c-2.563,0.064-5.114,0.162-7.66,0.291c-2.542,0.128-5.076,0.291-7.603,0.481c-2.525,0.193-5.049,0.417-7.555,0.671
	c-2.509,0.254-5.006,0.541-7.498,0.856c-2.493,0.317-4.967,0.665-7.44,1.042h-0.003c-2.468,0.379-4.926,0.783-7.378,1.225
	c-2.451,0.438-4.888,0.905-7.319,1.402c-2.429,0.497-4.848,1.023-7.255,1.579c-2.404,0.554-4.802,1.14-7.185,1.754
	c-2.387,0.616-4.76,1.256-7.117,1.928c-2.365,0.67-4.713,1.369-7.046,2.096h-0.006c-2.337,0.727-4.657,1.481-6.969,2.264
	s-4.612,1.592-6.898,2.43c-2.288,0.839-4.56,1.704-6.819,2.593c-2.257,0.892-4.504,1.809-6.736,2.751v0.003
	c-2.234,0.943-4.452,1.914-6.656,2.909c-2.203,0.998-4.394,2.021-6.566,3.069c-2.176,1.05-4.336,2.122-6.481,3.219
	c-4.294,2.198-8.521,4.501-12.691,6.896c-2.085,1.198-4.15,2.423-6.201,3.667h-0.003c-2.048,1.247-4.085,2.516-6.103,3.81h-0.003
	c-10.094,6.474-19.769,13.538-28.988,21.143c-1.839,1.52-3.667,3.062-5.472,4.628c-1.805,1.564-3.591,3.149-5.359,4.754
	c-7.069,6.425-13.83,13.187-20.255,20.252c-1.605,1.769-3.189,3.556-4.754,5.36c-1.565,1.807-3.105,3.634-4.625,5.474h-0.003
	c-7.608,9.216-14.669,18.895-21.142,28.989c-1.294,2.019-2.566,4.055-3.809,6.106v0.001c-1.246,2.051-2.472,4.119-3.668,6.203
	h-0.002c-2.398,4.167-4.699,8.398-6.891,12.69c-1.102,2.146-2.175,4.303-3.223,6.48c-1.048,2.174-2.071,4.366-3.068,6.567
	c-0.995,2.205-1.967,4.424-2.911,6.656h-0.003c-0.943,2.231-1.864,4.478-2.752,6.737c-0.89,2.26-1.754,4.533-2.594,6.817
	c-0.836,2.287-1.647,4.587-2.429,6.899c-0.78,2.31-1.537,4.635-2.266,6.972l0,0c-0.724,2.339-1.424,4.688-2.094,7.047
	c-0.672,2.361-1.311,4.733-1.93,7.12c-0.61,2.379-1.198,4.778-1.752,7.187c-0.553,2.406-1.082,4.824-1.579,7.254
	c-0.497,2.427-0.963,4.867-1.404,7.316c-0.441,2.451-0.848,4.913-1.224,7.382v0.001c-0.376,2.47-0.72,4.949-1.042,7.438
	c-0.317,2.492-0.6,4.991-0.854,7.5c-0.257,2.506-0.48,5.026-0.673,7.552c-0.192,2.524-0.356,5.061-0.479,7.608
	c-0.13,2.544-0.227,5.092-0.294,7.651c-0.067,2.56-0.096,5.131-0.096,7.707l0,0c0,2.577,0.029,5.143,0.096,7.702
	c0.068,2.56,0.164,5.113,0.294,7.656l0,0c0.124,2.549,0.288,5.08,0.479,7.606c0.192,2.531,0.416,5.045,0.673,7.555l0,0
	c0.254,2.509,0.537,5.006,0.854,7.492c0.322,2.492,0.666,4.973,1.042,7.442v0.005c0.378,2.47,0.782,4.928,1.224,7.38
	c0.44,2.446,0.907,4.888,1.404,7.312v0.006c0.498,2.43,1.026,4.843,1.579,7.25c0.554,2.407,1.142,4.803,1.752,7.188v0.006
	c0.619,2.385,1.257,4.752,1.93,7.114c0.669,2.362,1.37,4.706,2.094,7.046v0.006c0.729,2.333,1.486,4.656,2.266,6.967l0,0
	c0.782,2.312,1.593,4.611,2.429,6.899c0.84,2.283,1.704,4.561,2.594,6.815v0.005c1.78,4.515,3.673,8.979,5.666,13.387l0,0
	c1.991,4.413,4.09,8.764,6.291,13.053v0.006c3.295,6.431,6.82,12.729,10.562,18.884v0.006c1.243,2.046,2.515,4.086,3.809,6.103l0,0
	c7.77,12.114,16.383,23.632,25.77,34.463l0,0c1.565,1.803,3.149,3.588,4.754,5.357v0.006c8.03,8.831,16.587,17.188,25.614,25.004
	c1.806,1.563,3.633,3.107,5.472,4.628l0,0c9.219,7.611,18.894,14.668,28.988,21.138h0.003c4.035,2.594,8.14,5.087,12.307,7.482
	v0.006c4.167,2.39,8.396,4.694,12.691,6.888c2.145,1.103,4.303,2.175,6.481,3.221v0.006c2.169,1.046,4.363,2.067,6.566,3.062
	c2.205,1,4.425,1.966,6.656,2.915l0,0c2.232,0.943,4.479,1.865,6.736,2.752c2.26,0.894,4.532,1.752,6.819,2.594
	c2.286,0.83,4.585,1.645,6.898,2.429c2.312,0.781,4.635,1.538,6.969,2.268h0.006c2.336,0.723,4.685,1.423,7.046,2.09
	c2.356,0.673,4.73,1.316,7.117,1.933c2.382,0.609,4.781,1.198,7.185,1.752c2.407,0.559,4.826,1.084,7.255,1.582
	c2.431,0.497,4.868,0.96,7.319,1.401c2.452,0.436,4.91,0.842,7.378,1.22h0.003c2.473,0.379,4.947,0.725,7.44,1.046
	c2.492,0.312,4.989,0.599,7.498,0.854c2.506,0.255,5.03,0.48,7.555,0.673c2.526,0.192,5.06,0.355,7.603,0.48
	c2.545,0.13,5.097,0.226,7.66,0.293c2.554,0.068,5.126,0.096,7.702,0.096s5.142-0.027,7.702-0.096h0.003
	c2.558-0.067,5.114-0.163,7.654-0.293h0.003c2.542-0.125,5.073-0.288,7.603-0.48l0,0c2.528-0.192,5.046-0.418,7.555-0.673l0,0
	c2.509-0.255,5.004-0.542,7.495-0.854l0,0c2.493-0.321,4.97-0.667,7.439-1.046h0.003c2.47-0.378,4.93-0.784,7.38-1.22l0,0
	c2.449-0.441,4.887-0.904,7.317-1.401l0,0c2.429-0.502,4.845-1.023,7.252-1.582h0.003c2.407-0.554,4.803-1.143,7.188-1.752h0.003
	c2.386-0.616,4.755-1.26,7.113-1.933l0,0c2.365-0.667,4.711-1.367,7.05-2.09c2.337-0.729,4.66-1.486,6.974-2.268l0,0
	c2.312-0.784,4.61-1.599,6.896-2.429c2.285-0.842,4.557-1.7,6.816-2.594c2.261-0.887,4.507-1.809,6.739-2.752l0,0
	c2.231-0.949,4.452-1.915,6.653-2.915l0,0c4.41-1.995,8.761-4.092,13.051-6.289h0.001c8.579-4.396,16.921-9.193,24.996-14.376l0,0
	c2.021-1.287,4.023-2.609,6.007-3.949c9.928-6.707,19.43-13.991,28.457-21.816h0.003c1.8-1.56,3.588-3.148,5.355-4.753v-0.006
	c1.767-1.604,3.516-3.231,5.242-4.876c1.726-1.65,3.436-3.316,5.128-5.006c1.686-1.69,3.356-3.397,5.003-5.126l0,0
	c3.294-3.452,6.509-6.989,9.634-10.601l0,0c1.565-1.802,3.111-3.628,4.631-5.47c7.605-9.222,14.667-18.901,21.14-28.993l0,0
	c5.179-8.074,9.978-16.415,14.374-24.992v-0.006c2.196-4.289,4.295-8.64,6.287-13.053l0,0c1.991-4.408,3.885-8.872,5.667-13.387
	v-0.005c0.892-2.255,1.755-4.532,2.592-6.815c0.836-2.288,1.647-4.588,2.429-6.899l0,0c0.784-2.311,1.541-4.634,2.267-6.967v-0.006
	c0.727-2.34,1.424-4.684,2.097-7.046c0.67-2.362,1.311-4.729,1.924-7.114v-0.006c0.619-2.385,1.201-4.78,1.758-7.188
	c0.556-2.407,1.082-4.82,1.578-7.25v-0.006c0.498-2.424,0.964-4.865,1.405-7.312c0.436-2.452,0.845-4.91,1.22-7.38v-0.005
	c0.379-2.47,0.725-4.95,1.043-7.442c0.316-2.486,0.602-4.983,0.856-7.492l0,0c0.253-2.51,0.479-5.023,0.671-7.555
	c0.192-2.526,0.354-5.058,0.48-7.606l0,0c0.132-2.543,0.228-5.097,0.295-7.656c0.065-2.56,0.096-5.125,0.096-7.702l0,0
	c0-2.525-0.03-5.04-0.096-7.55l-0.006-0.214c-0.062-2.441-0.153-4.876-0.277-7.312l-0.02-0.407
	c-0.118-2.396-0.274-4.781-0.455-7.162l-0.03-0.469c-0.181-2.344-0.391-4.677-0.622-7.01l-0.057-0.594
	c-0.237-2.288-0.499-4.572-0.782-6.847l-0.087-0.693c-0.288-2.24-0.6-4.467-0.937-6.69l-0.121-0.808
	c-0.339-2.201-0.703-4.392-1.091-6.579l-0.141-0.818c-0.391-2.167-0.809-4.322-1.244-6.476l-0.181-0.902
	c-0.44-2.13-0.904-4.25-1.389-6.366l-0.207-0.907c-0.492-2.119-1.009-4.231-1.545-6.333l-0.219-0.832
	c-0.538-2.101-1.106-4.192-1.691-6.274l-0.255-0.896c-0.59-2.071-1.209-4.137-1.843-6.185l-0.268-0.862
	c-0.638-2.046-1.296-4.082-1.983-6.104l-0.311-0.928c-0.684-2.006-1.391-4.007-2.117-6l-0.321-0.883
	c-0.737-2.006-1.497-4.005-2.277-5.991l-0.322-0.808c-0.785-1.986-1.59-3.958-2.42-5.922l-0.362-0.859
	c-0.839-1.964-1.692-3.923-2.57-5.866l-0.337-0.739c-0.89-1.968-1.803-3.921-2.734-5.865l-0.331-0.681
	c-0.952-1.959-1.916-3.91-2.907-5.844l-0.313-0.608c-0.997-1.939-2.013-3.869-3.052-5.785l-0.353-0.643
	c-1.046-1.913-2.105-3.818-3.193-5.708l-0.296-0.514c-1.108-1.917-2.232-3.822-3.38-5.712l-0.279-0.461
	c-1.176-1.925-2.368-3.836-3.582-5.732l-0.13-0.205c-1.253-1.945-2.526-3.881-3.819-5.799l-0.15-0.221
	c-1.277-1.886-2.571-3.76-3.891-5.612l-0.091-0.129l-0.023-0.035l-0.019-0.022c-1.331-1.868-2.678-3.718-4.048-5.555l-0.192-0.257
	c-1.337-1.782-2.689-3.544-4.061-5.296l-0.359-0.461c-1.383-1.755-2.783-3.495-4.207-5.221l-0.268-0.329
	c-1.401-1.698-2.828-3.378-4.267-5.043l-0.424-0.498c-1.404-1.614-2.825-3.215-4.261-4.799l-0.545-0.604
	c-1.424-1.564-2.864-3.112-4.325-4.646l-0.579-0.608c-1.444-1.513-2.905-3.008-4.38-4.488l-0.681-0.684
	c-1.583-1.578-3.179-3.141-4.792-4.681l-0.009-0.006l-0.05-0.045l-0.038-0.039l-0.016-0.017
	C623.731,202.31,619.711,198.696,615.601,195.179"/>
<polygon fill="#EE5554" points="521.037,335.119 412.583,323.742 409.718,318.123 459.623,323.818 364.151,243.444 366.683,240.37 
	470.474,324.994 521.037,330.599 "/>
<polygon fill="#EE5554" points="480.599,296.739 484.688,298.594 533.036,179.977 589.006,148.876 586.921,144.536 529.059,178.442 
	"/>
<path fill="#EE5554" d="M330.81,380.686l-50.378,29.77l-25.314,53.229l-28.208,10.487l22.06,73.955l62.203,65.457l-3.074,3.254
	l-62.745-66.18l-23.206-79.08l29.172-11.329l25.973-52.89l56.075-62.417l-56.741-12.107l0.666-4.401l114.343,26.938l57.767,46.499
	L330.81,380.686z M329.795,376.148l51.594-18.965l-43.109-10.13l-48.13,52.147L329.795,376.148z M390.106,359.591l-51.826,18.548
	l98.741,17.736L390.106,359.591z"/>
<polygon fill="#EE5554" points="482.407,364.631 508.807,441.805 413.091,447.059 413.091,451.568 508.807,447.059 498.443,465.672 
	502.297,467.227 514.954,444.787 486.746,364.631 "/>
<polygon fill="#EE5554" points="578.693,479.776 582.219,481.945 618.741,419.925 620.668,461.355 624.893,461.355 622.906,415.376 
	616.574,414.319 "/>
<polygon fill="#EE5554" points="312.278,489.349 317.138,489.349 312.278,538.729 307.374,538.729 "/>
<path fill-rule="evenodd" clip-rule="evenodd" fill="#EE5554" d="M357.008,623.38l18.667,12.584l-20.167-7.674l-4.514-1.717
	l-6.25-2.379l-12.702-4.836l-98.886-37.629l19.387-28.761l19.71,13.285l30.106,20.29l50.472,34.022L357.008,623.38z
	 M360.199,612.949l15.041,15.139l-16.306-10.991l-4.183-2.819l-87.793-59.173l-17.489-11.787l-50.008-33.706l26.222-32.05
	l53.763,54.109l3.708,3.735l73.188,73.661L360.199,612.949z M203.372,392.811l-15.774,14.548l30.777-72.277l25.857-7.63
	l-14.358,33.509l-5.252,12.254L203.372,392.811z M280.604,307.529l-26.412,38.415l-18.263,16.841l1.385-3.232l6.662-15.543
	l21.178-49.416l21.376-1.723l4.394-0.354L280.604,307.529z M258.96,471.335l55.752,18.014l0.502,0.966l2.888,5.538l9.019,17.302
	l2.242,4.3l26.417,50.681l8.155,16.099l3.141,6.204l17.162,33.886l-20.038-24.473l-3.669-4.48l-55.927-68.299l-3.212-3.921
	l-30.531-37.283l-4.88-5.961L258.96,471.335z M646.216,496.123l-39.389,14.002l-2.789,0.995l-3.929-4.825l-15.277-18.749
	L646.216,496.123z M494.238,433.012l17.958,11.775l4.044,2.65l46.807,30.688l-57.634-11.069l-13.23-2.537l-79.092-15.194
	l28.761-30.35l11.873-12.527l31.79,20.845L494.238,433.012z M484.33,374.149l39.854,48.917l3.282,4.029l35.312,43.335
	l-43.493-28.514l-4.04-2.65l-22.78-14.935l-8.476-5.56l-25.872-16.959l19.205-20.269l5.262-5.555L484.33,374.149z M542.365,400.097
	l25.699,66.869l-37.322-45.803l-3.283-4.035l-38.769-47.579l29.834-31.483l21.581,56.15L542.365,400.097z M529.634,349.442
	l20.999,25.696l3.285,4.022l13.741,16.813l7.85,9.604l41.583,50.884l1.854,2.266l-2.95,1.582L594.93,471.6l-4.34,2.328
	l-10.874,5.825l-33.381-86.852l-2.26-5.881L529.634,349.442z M234.274,458.846l4.244,2.73l9.12,5.854l8.515,10.402l4.88,5.956
	l34.191,41.758l3.212,3.921l57.738,70.515l-66.626-67.062l-3.706-3.729l-50.505-50.833l-6.199-6.238l-1.379-1.39l-0.03-0.033
	l-3.17-3.635l-28.683-32.881L234.274,458.846z M243.095,451.388l1.306,5.215l0.381,1.521l-1.241-0.797l-4.243-2.724l-53.871-34.609
	l-1.333-0.854l15.649-14.432l25.739-23.734l4.515,18.051l1.175,4.699L243.095,451.388z M291.114,430.48l62.624,67.982l3.502,3.803
	l1.066,3.95l13.833,51.161l2.368,8.751l14.533,53.76l-19.311-38.13l-3.144-6.204l-5.21-10.289l-26.114-50.099l-2.241-4.3
	l-6.951-13.324l-2.885-5.538L291.114,430.48z M365.126,499.942l36.25-38.254l2.055-2.17l-0.464,13.454l-5.332,154.635
	l-19.677-72.786l-2.365-8.752l-11.689-43.245l-0.336-1.242L365.126,499.942z M273.066,337.092l-10.431,50.324l-1.142,5.523
	l-10.781,52.012l-1.244,6.001l-1.023-4.085l-11.323-45.261l-1.175-4.698l-5.202-20.791L273.066,337.092z M329.284,247.816
	l31.05,0.249l-49.889,46.008l-3.605,3.319l-31.801,29.329l24.137-35.107l2.731-3.977l19.624-28.543L329.284,247.816z
	 M432.073,254.135l-37.569-31.756l-5.403-4.564l2.371-1.531l25.727-19.068L432.073,254.135z M274.439,388.335l-0.215,23.346
	l4.848,9.301l2.283,4.38l29.213,56.042l-57.162-18.472l3.504-16.906l1.588-7.651l9.928-47.9l1.141-5.524l5.128-24.729l-0.212,22.981
	L274.439,388.335z M292.49,376.798l-3.483,6.354l-8.375,15.282l0.114-12.344l0.048-5.131l0.472-51.425l30.679-28.293l3.603-3.321
	l40.781-37.606l-26.507,48.368l-2.343,4.273L292.49,376.798z M326.2,387.454l27.49,101.68l-64.691-70.231l-3.269-3.548l-4.511-4.899
	l16.697-30.471l3.483-6.354l31.152-56.85l2.342-4.271l21.927-40.013l-13.775,46.158l-1.469,4.929l-11.939,40.004l-1.709,5.724
	l-3.478,11.652l0.367,1.354L326.2,387.454z M333.497,390.348l68.85,61.174l-40.702,42.951L333.497,390.348z M386.063,357.13
	l5.914,31.647l0.95,5.079l9.156,49.027l-67.295-59.8l-3.487-3.097l0.693-2.323l3.275-10.966l1.706-5.722l9.958-33.354l1.469-4.929
	l19.208-64.356l16.005,85.681l0.955,5.105l0.181,0.979L386.063,357.13z M414.354,336.922l32.302,59.857l2.746,5.091l-1.977,2.086
	l-38.435,40.555l-0.172,0.182l-0.048-0.249l-9.222-49.359l-0.949-5.079l-5.091-27.263l-1.312-7.027l-1.689-9.027l-0.983-5.27
	l-14.429-77.244l36.458,67.559L414.354,336.922z M468.063,330.027l6.051,24.625l-30.674-26.946l21.13,1.984l1.831,0.175
	L468.063,330.027z M480.324,369.235L480.324,369.235l-4.379,4.622l-21.992,23.208l-33.745-62.54l-2.877-5.331l-37.214-68.967
	l-7.702-14.275l13.336-20.729l69.302,85.085l10.357,14.433l-5.787-0.923l-23.506-2.079l-10.668-1.267l3.187,3.215l0.433,0.345
	l5.685,4.533L480.324,369.235z M486.668,308.508l28.431,24.03l-30.411,32.093l-11.938-39.49l0,0l-1.617-3.079l0,0l-63.583-80.426
	l75.195,63.555L486.668,308.508z M635.587,488.37l16.14-29.043l-0.732,32.202L635.587,488.37z M625.142,462.542l22.845-9.396
	l-19.001,33.869l-39.022-5.616l2.438-1.306l4.34-2.328l16.858-9.035l5.914-3.17L625.142,462.542z M616.701,418.41l5.081,4.295
	l27.394,23.15l-24.419,10.047l-1.851-2.266l-4.459-5.453l-47.504-58.128l-7.849-9.606l-5.902-7.221l-3.285-4.022l-10.234-12.519
	l11.689,9.879l3.754,3.172l1.1,0.93l6.687,5.652L616.701,418.41z M480.974,293.072l-39.511-31.663
	c54.616-49.488,108.909-98.085,166.301-144.292C565.939,176.123,522.797,234.07,480.974,293.072z M641.918,77.23L439.567,252.824
	l-18.413-65.056c-13.074,9.208-27.017,17.813-39.398,27.93l-16.535,26.117l-39.226-0.312l-9.643,14.03l-20.836,30.303l-34.646,2.794
	l-13.42,31.317l-33.7,9.944l-38.125,90.096l45.723,52.946l-31.118,38.034l57.099,38.485l-23.814,35.333l179.48,68.153l7.489-197.71
	l165.558,31.994l25.934,31.305l52.242-18.58l2.902-1.027l1.308-53.478l-98.09-82.905l-71.745-64.722
	C539.698,224.287,590.808,150.759,641.918,77.23z"/>
</svg>
